<svg width="25" height="25" viewBox="0 0 25 25" fill="none" xmlns="http://www.w3.org/2000/svg">
<g id="SVGRepo_iconCarrier">
<path id="Vector" fill-rule="evenodd" clip-rule="evenodd" d="M25 12.5C25 19.4035 19.4035 25 12.5 25C5.59644 25 0 19.4035 0 12.5C0 5.59644 5.59644 0 12.5 0C19.4035 0 25 5.59644 25 12.5ZM12.9479 9.22805C11.7321 9.73375 9.30221 10.7804 5.65821 12.368C5.06647 12.6034 4.7565 12.8336 4.72829 13.0586C4.6806 13.4391 5.15699 13.5889 5.80569 13.7929C5.89394 13.8206 5.98536 13.8494 6.07909 13.8797C6.71731 14.0872 7.57585 14.33 8.02216 14.3396C8.42701 14.3484 8.87887 14.1815 9.37774 13.8389C12.7825 11.5406 14.54 10.379 14.6502 10.3539C14.7281 10.3363 14.836 10.314 14.9091 10.379C14.9823 10.444 14.975 10.567 14.9672 10.6C14.9201 10.8012 13.0501 12.5398 12.0824 13.4394C11.7808 13.7199 11.5668 13.9188 11.523 13.9643C11.425 14.066 11.3251 14.1623 11.2291 14.2548C10.6363 14.8264 10.1915 15.255 11.2538 15.955C11.7643 16.2914 12.1726 16.5695 12.5801 16.847C13.0251 17.1501 13.469 17.4524 14.0434 17.8289C14.1896 17.9247 14.3294 18.0244 14.4655 18.1214C14.9834 18.4906 15.4486 18.8224 16.0235 18.7694C16.3575 18.7387 16.7025 18.4246 16.8778 17.4879C17.2919 15.2741 18.1059 10.4775 18.294 8.50101C18.3105 8.32785 18.2897 8.10623 18.2731 8.00894C18.2564 7.91165 18.2216 7.77302 18.0951 7.67041C17.9454 7.54889 17.7143 7.52326 17.6108 7.525C17.1406 7.53338 16.4193 7.78419 12.9479 9.22805Z" fill="#844B33"/>
</g>
</svg>
