<svg width="25" height="25" viewBox="0 0 25 25" fill="none" xmlns="http://www.w3.org/2000/svg">
<g id="SVGRepo_iconCarrier">
<path id="Vector" d="M25 12.5755C24.9992 5.6302 19.4035 0 12.5 0C5.59649 0 0 5.63104 0 12.5772C0 18.8297 4.53454 24.0162 10.4745 24.9899L10.5461 25V16.2121H7.37197V12.5755H10.5461V9.80609C10.5303 9.66603 10.522 9.50332 10.522 9.33894C10.522 6.88741 12.4975 4.89969 14.934 4.89969C15.0515 4.89969 15.1682 4.90472 15.2841 4.91311L15.2691 4.91227C16.2685 4.92653 17.2354 5.01543 18.179 5.17395L18.0673 5.15801V8.25282H16.4902C16.4185 8.24275 16.336 8.23688 16.2527 8.23688C15.2549 8.23688 14.4455 9.05042 14.4455 10.0552C14.4455 10.1122 14.448 10.1684 14.453 10.2246L14.4522 10.2171V12.5755H17.9189L17.3646 16.2121H14.4522V25C20.4646 24.0154 24.9992 18.828 25 12.5755Z" fill="#844B33"/>
</g>
</svg>
